<mxfile host="app.diagrams.net" agent="Mozilla/5.0 (Windows NT 10.0; Win64; x64) AppleWebKit/537.36 (KHTML, like Gecko) Chrome/131.0.0.0 Safari/537.36" version="24.9.1">
  <diagram name="Halaman-1" id="o6tw3zBqs2lcwup_bhgg">
    <mxGraphModel dx="3655" dy="1690" grid="1" gridSize="10" guides="1" tooltips="1" connect="1" arrows="1" fold="1" page="1" pageScale="1" pageWidth="827" pageHeight="1169" math="0" shadow="0">
      <root>
        <mxCell id="0" />
        <mxCell id="1" parent="0" />
        <mxCell id="shjcz4ytobr2jO7SuoTM-4" value="" style="edgeStyle=orthogonalEdgeStyle;rounded=0;orthogonalLoop=1;jettySize=auto;html=1;" parent="1" source="shjcz4ytobr2jO7SuoTM-1" target="shjcz4ytobr2jO7SuoTM-2" edge="1">
          <mxGeometry relative="1" as="geometry" />
        </mxCell>
        <mxCell id="shjcz4ytobr2jO7SuoTM-1" value="START" style="rounded=0;whiteSpace=wrap;html=1;" parent="1" vertex="1">
          <mxGeometry x="366" y="26" width="96" height="30" as="geometry" />
        </mxCell>
        <mxCell id="shjcz4ytobr2jO7SuoTM-5" value="" style="edgeStyle=orthogonalEdgeStyle;rounded=0;orthogonalLoop=1;jettySize=auto;html=1;" parent="1" source="shjcz4ytobr2jO7SuoTM-2" target="shjcz4ytobr2jO7SuoTM-3" edge="1">
          <mxGeometry relative="1" as="geometry" />
        </mxCell>
        <mxCell id="shjcz4ytobr2jO7SuoTM-2" value="USER MEMBUKA APLIKASI" style="rounded=0;whiteSpace=wrap;html=1;" parent="1" vertex="1">
          <mxGeometry x="321" y="82" width="186" height="37" as="geometry" />
        </mxCell>
        <mxCell id="shjcz4ytobr2jO7SuoTM-7" value="" style="edgeStyle=orthogonalEdgeStyle;rounded=0;orthogonalLoop=1;jettySize=auto;html=1;" parent="1" source="shjcz4ytobr2jO7SuoTM-3" target="shjcz4ytobr2jO7SuoTM-6" edge="1">
          <mxGeometry relative="1" as="geometry" />
        </mxCell>
        <mxCell id="shjcz4ytobr2jO7SuoTM-3" value="USER LOGIN" style="rounded=0;whiteSpace=wrap;html=1;" parent="1" vertex="1">
          <mxGeometry x="336" y="150" width="156" height="33" as="geometry" />
        </mxCell>
        <mxCell id="shjcz4ytobr2jO7SuoTM-9" value="" style="edgeStyle=orthogonalEdgeStyle;rounded=0;orthogonalLoop=1;jettySize=auto;html=1;entryX=0.5;entryY=0;entryDx=0;entryDy=0;" parent="1" source="shjcz4ytobr2jO7SuoTM-6" target="shjcz4ytobr2jO7SuoTM-17" edge="1">
          <mxGeometry relative="1" as="geometry">
            <mxPoint x="400" y="430" as="targetPoint" />
          </mxGeometry>
        </mxCell>
        <mxCell id="shjcz4ytobr2jO7SuoTM-15" value="YES" style="edgeLabel;html=1;align=center;verticalAlign=middle;resizable=0;points=[];" parent="shjcz4ytobr2jO7SuoTM-9" vertex="1" connectable="0">
          <mxGeometry x="-0.3531" y="3" relative="1" as="geometry">
            <mxPoint x="-4" as="offset" />
          </mxGeometry>
        </mxCell>
        <mxCell id="shjcz4ytobr2jO7SuoTM-13" value="" style="edgeStyle=orthogonalEdgeStyle;rounded=0;orthogonalLoop=1;jettySize=auto;html=1;" parent="1" source="shjcz4ytobr2jO7SuoTM-6" target="shjcz4ytobr2jO7SuoTM-12" edge="1">
          <mxGeometry relative="1" as="geometry" />
        </mxCell>
        <mxCell id="shjcz4ytobr2jO7SuoTM-14" value="NO" style="edgeLabel;html=1;align=center;verticalAlign=middle;resizable=0;points=[];" parent="shjcz4ytobr2jO7SuoTM-13" vertex="1" connectable="0">
          <mxGeometry x="-0.0081" y="-1" relative="1" as="geometry">
            <mxPoint x="-3" y="-1" as="offset" />
          </mxGeometry>
        </mxCell>
        <mxCell id="shjcz4ytobr2jO7SuoTM-6" value="SUDAH MEMILIKI AKUN?" style="rhombus;whiteSpace=wrap;html=1;" parent="1" vertex="1">
          <mxGeometry x="320" y="202.77" width="188" height="147.23" as="geometry" />
        </mxCell>
        <mxCell id="shjcz4ytobr2jO7SuoTM-11" value="" style="edgeStyle=orthogonalEdgeStyle;rounded=0;orthogonalLoop=1;jettySize=auto;html=1;" parent="1" source="shjcz4ytobr2jO7SuoTM-8" target="shjcz4ytobr2jO7SuoTM-10" edge="1">
          <mxGeometry relative="1" as="geometry" />
        </mxCell>
        <mxCell id="shjcz4ytobr2jO7SuoTM-8" value="TAMPILKAN ANTARMUKA UTAMA" style="rounded=0;whiteSpace=wrap;html=1;" parent="1" vertex="1">
          <mxGeometry x="306" y="567" width="214" height="33" as="geometry" />
        </mxCell>
        <mxCell id="shjcz4ytobr2jO7SuoTM-29" style="edgeStyle=orthogonalEdgeStyle;rounded=0;orthogonalLoop=1;jettySize=auto;html=1;exitX=0.5;exitY=1;exitDx=0;exitDy=0;entryX=0.5;entryY=0;entryDx=0;entryDy=0;" parent="1" source="shjcz4ytobr2jO7SuoTM-10" target="shjcz4ytobr2jO7SuoTM-23" edge="1">
          <mxGeometry relative="1" as="geometry" />
        </mxCell>
        <mxCell id="shjcz4ytobr2jO7SuoTM-30" style="edgeStyle=orthogonalEdgeStyle;rounded=0;orthogonalLoop=1;jettySize=auto;html=1;exitX=0.5;exitY=1;exitDx=0;exitDy=0;entryX=0.5;entryY=0;entryDx=0;entryDy=0;exitPerimeter=0;" parent="1" source="shjcz4ytobr2jO7SuoTM-10" target="shjcz4ytobr2jO7SuoTM-24" edge="1">
          <mxGeometry relative="1" as="geometry" />
        </mxCell>
        <mxCell id="shjcz4ytobr2jO7SuoTM-31" style="edgeStyle=orthogonalEdgeStyle;rounded=0;orthogonalLoop=1;jettySize=auto;html=1;exitX=0.5;exitY=1;exitDx=0;exitDy=0;entryX=0.5;entryY=0;entryDx=0;entryDy=0;" parent="1" source="shjcz4ytobr2jO7SuoTM-10" target="shjcz4ytobr2jO7SuoTM-25" edge="1">
          <mxGeometry relative="1" as="geometry" />
        </mxCell>
        <mxCell id="shjcz4ytobr2jO7SuoTM-32" style="edgeStyle=orthogonalEdgeStyle;rounded=0;orthogonalLoop=1;jettySize=auto;html=1;exitX=0.5;exitY=1;exitDx=0;exitDy=0;entryX=0.5;entryY=0;entryDx=0;entryDy=0;" parent="1" source="shjcz4ytobr2jO7SuoTM-10" target="shjcz4ytobr2jO7SuoTM-26" edge="1">
          <mxGeometry relative="1" as="geometry" />
        </mxCell>
        <mxCell id="shjcz4ytobr2jO7SuoTM-33" style="edgeStyle=orthogonalEdgeStyle;rounded=0;orthogonalLoop=1;jettySize=auto;html=1;exitX=0.5;exitY=1;exitDx=0;exitDy=0;" parent="1" source="shjcz4ytobr2jO7SuoTM-10" target="shjcz4ytobr2jO7SuoTM-27" edge="1">
          <mxGeometry relative="1" as="geometry" />
        </mxCell>
        <mxCell id="shjcz4ytobr2jO7SuoTM-34" style="edgeStyle=orthogonalEdgeStyle;rounded=0;orthogonalLoop=1;jettySize=auto;html=1;exitX=0.5;exitY=1;exitDx=0;exitDy=0;entryX=0.5;entryY=0;entryDx=0;entryDy=0;" parent="1" source="shjcz4ytobr2jO7SuoTM-10" target="shjcz4ytobr2jO7SuoTM-28" edge="1">
          <mxGeometry relative="1" as="geometry" />
        </mxCell>
        <mxCell id="shjcz4ytobr2jO7SuoTM-10" value="PILIH FITUR" style="rounded=0;whiteSpace=wrap;html=1;" parent="1" vertex="1">
          <mxGeometry x="306" y="637" width="214" height="33" as="geometry" />
        </mxCell>
        <mxCell id="shjcz4ytobr2jO7SuoTM-16" style="edgeStyle=orthogonalEdgeStyle;rounded=0;orthogonalLoop=1;jettySize=auto;html=1;exitX=0.5;exitY=0;exitDx=0;exitDy=0;entryX=1;entryY=0.5;entryDx=0;entryDy=0;" parent="1" source="shjcz4ytobr2jO7SuoTM-12" target="shjcz4ytobr2jO7SuoTM-3" edge="1">
          <mxGeometry relative="1" as="geometry" />
        </mxCell>
        <mxCell id="shjcz4ytobr2jO7SuoTM-12" value="BUAT AKUN" style="rounded=0;whiteSpace=wrap;html=1;" parent="1" vertex="1">
          <mxGeometry x="580" y="260.5" width="156" height="33" as="geometry" />
        </mxCell>
        <mxCell id="shjcz4ytobr2jO7SuoTM-18" style="edgeStyle=orthogonalEdgeStyle;rounded=0;orthogonalLoop=1;jettySize=auto;html=1;exitX=0;exitY=0.5;exitDx=0;exitDy=0;entryX=0;entryY=0.5;entryDx=0;entryDy=0;" parent="1" source="shjcz4ytobr2jO7SuoTM-17" target="shjcz4ytobr2jO7SuoTM-3" edge="1">
          <mxGeometry relative="1" as="geometry">
            <Array as="points">
              <mxPoint x="260" y="460" />
              <mxPoint x="260" y="167" />
            </Array>
          </mxGeometry>
        </mxCell>
        <mxCell id="shjcz4ytobr2jO7SuoTM-21" value="NO" style="edgeLabel;html=1;align=center;verticalAlign=middle;resizable=0;points=[];" parent="shjcz4ytobr2jO7SuoTM-18" vertex="1" connectable="0">
          <mxGeometry x="-0.3915" y="1" relative="1" as="geometry">
            <mxPoint as="offset" />
          </mxGeometry>
        </mxCell>
        <mxCell id="shjcz4ytobr2jO7SuoTM-20" style="edgeStyle=orthogonalEdgeStyle;rounded=0;orthogonalLoop=1;jettySize=auto;html=1;exitX=0.5;exitY=1;exitDx=0;exitDy=0;entryX=0.5;entryY=0;entryDx=0;entryDy=0;" parent="1" source="shjcz4ytobr2jO7SuoTM-17" target="shjcz4ytobr2jO7SuoTM-8" edge="1">
          <mxGeometry relative="1" as="geometry" />
        </mxCell>
        <mxCell id="shjcz4ytobr2jO7SuoTM-22" value="YES" style="edgeLabel;html=1;align=center;verticalAlign=middle;resizable=0;points=[];" parent="shjcz4ytobr2jO7SuoTM-20" vertex="1" connectable="0">
          <mxGeometry x="-0.3368" y="3" relative="1" as="geometry">
            <mxPoint x="-3" y="-1" as="offset" />
          </mxGeometry>
        </mxCell>
        <mxCell id="shjcz4ytobr2jO7SuoTM-17" value="LOGIN BERHASIL?" style="rhombus;whiteSpace=wrap;html=1;" parent="1" vertex="1">
          <mxGeometry x="349" y="400" width="129" height="120" as="geometry" />
        </mxCell>
        <mxCell id="shjcz4ytobr2jO7SuoTM-23" value="A" style="ellipse;whiteSpace=wrap;html=1;aspect=fixed;" parent="1" vertex="1">
          <mxGeometry x="219" y="720" width="50" height="50" as="geometry" />
        </mxCell>
        <mxCell id="shjcz4ytobr2jO7SuoTM-24" value="B" style="ellipse;whiteSpace=wrap;html=1;aspect=fixed;" parent="1" vertex="1">
          <mxGeometry x="289" y="720" width="50" height="50" as="geometry" />
        </mxCell>
        <mxCell id="shjcz4ytobr2jO7SuoTM-25" value="C" style="ellipse;whiteSpace=wrap;html=1;aspect=fixed;" parent="1" vertex="1">
          <mxGeometry x="359" y="720" width="50" height="50" as="geometry" />
        </mxCell>
        <mxCell id="shjcz4ytobr2jO7SuoTM-26" value="D" style="ellipse;whiteSpace=wrap;html=1;aspect=fixed;" parent="1" vertex="1">
          <mxGeometry x="425" y="720" width="50" height="50" as="geometry" />
        </mxCell>
        <mxCell id="shjcz4ytobr2jO7SuoTM-27" value="E" style="ellipse;whiteSpace=wrap;html=1;aspect=fixed;" parent="1" vertex="1">
          <mxGeometry x="490" y="720" width="50" height="50" as="geometry" />
        </mxCell>
        <mxCell id="shjcz4ytobr2jO7SuoTM-28" value="F" style="ellipse;whiteSpace=wrap;html=1;aspect=fixed;" parent="1" vertex="1">
          <mxGeometry x="557" y="720" width="50" height="50" as="geometry" />
        </mxCell>
        <mxCell id="shjcz4ytobr2jO7SuoTM-37" value="" style="edgeStyle=orthogonalEdgeStyle;rounded=0;orthogonalLoop=1;jettySize=auto;html=1;" parent="1" source="shjcz4ytobr2jO7SuoTM-35" target="shjcz4ytobr2jO7SuoTM-36" edge="1">
          <mxGeometry relative="1" as="geometry" />
        </mxCell>
        <mxCell id="shjcz4ytobr2jO7SuoTM-35" value="A" style="ellipse;whiteSpace=wrap;html=1;aspect=fixed;" parent="1" vertex="1">
          <mxGeometry x="931" y="70" width="50" height="50" as="geometry" />
        </mxCell>
        <mxCell id="shjcz4ytobr2jO7SuoTM-42" style="edgeStyle=orthogonalEdgeStyle;rounded=0;orthogonalLoop=1;jettySize=auto;html=1;exitX=0.5;exitY=1;exitDx=0;exitDy=0;entryX=0.5;entryY=0;entryDx=0;entryDy=0;" parent="1" source="shjcz4ytobr2jO7SuoTM-36" target="shjcz4ytobr2jO7SuoTM-38" edge="1">
          <mxGeometry relative="1" as="geometry" />
        </mxCell>
        <mxCell id="shjcz4ytobr2jO7SuoTM-36" value="TEXT CHAT" style="rounded=0;whiteSpace=wrap;html=1;" parent="1" vertex="1">
          <mxGeometry x="872" y="144" width="168" height="30" as="geometry" />
        </mxCell>
        <mxCell id="shjcz4ytobr2jO7SuoTM-43" style="edgeStyle=orthogonalEdgeStyle;rounded=0;orthogonalLoop=1;jettySize=auto;html=1;exitX=0.5;exitY=1;exitDx=0;exitDy=0;entryX=0.5;entryY=0;entryDx=0;entryDy=0;" parent="1" source="shjcz4ytobr2jO7SuoTM-38" target="shjcz4ytobr2jO7SuoTM-39" edge="1">
          <mxGeometry relative="1" as="geometry" />
        </mxCell>
        <mxCell id="shjcz4ytobr2jO7SuoTM-38" value="INPUT PROMPT CHAT" style="rounded=0;whiteSpace=wrap;html=1;" parent="1" vertex="1">
          <mxGeometry x="872" y="202.77" width="168" height="30" as="geometry" />
        </mxCell>
        <mxCell id="shjcz4ytobr2jO7SuoTM-107" style="edgeStyle=orthogonalEdgeStyle;rounded=0;orthogonalLoop=1;jettySize=auto;html=1;exitX=0.5;exitY=1;exitDx=0;exitDy=0;entryX=0.5;entryY=0;entryDx=0;entryDy=0;" parent="1" source="shjcz4ytobr2jO7SuoTM-39" target="shjcz4ytobr2jO7SuoTM-106" edge="1">
          <mxGeometry relative="1" as="geometry" />
        </mxCell>
        <mxCell id="shjcz4ytobr2jO7SuoTM-39" value="GENERATE RESPON CHAT" style="rounded=0;whiteSpace=wrap;html=1;" parent="1" vertex="1">
          <mxGeometry x="872" y="261.39" width="168" height="30" as="geometry" />
        </mxCell>
        <mxCell id="shjcz4ytobr2jO7SuoTM-49" style="edgeStyle=orthogonalEdgeStyle;rounded=0;orthogonalLoop=1;jettySize=auto;html=1;exitX=0.5;exitY=1;exitDx=0;exitDy=0;entryX=0.5;entryY=0;entryDx=0;entryDy=0;" parent="1" source="shjcz4ytobr2jO7SuoTM-44" target="shjcz4ytobr2jO7SuoTM-45" edge="1">
          <mxGeometry relative="1" as="geometry" />
        </mxCell>
        <mxCell id="shjcz4ytobr2jO7SuoTM-44" value="B" style="ellipse;whiteSpace=wrap;html=1;aspect=fixed;" parent="1" vertex="1">
          <mxGeometry x="1140" y="75.5" width="50" height="50" as="geometry" />
        </mxCell>
        <mxCell id="shjcz4ytobr2jO7SuoTM-51" style="edgeStyle=orthogonalEdgeStyle;rounded=0;orthogonalLoop=1;jettySize=auto;html=1;exitX=0.5;exitY=1;exitDx=0;exitDy=0;entryX=0.5;entryY=0;entryDx=0;entryDy=0;" parent="1" source="shjcz4ytobr2jO7SuoTM-45" target="shjcz4ytobr2jO7SuoTM-46" edge="1">
          <mxGeometry relative="1" as="geometry" />
        </mxCell>
        <mxCell id="shjcz4ytobr2jO7SuoTM-45" value="DALL-E IMAGE CREATION" style="rounded=0;whiteSpace=wrap;html=1;" parent="1" vertex="1">
          <mxGeometry x="1081" y="144" width="168" height="30" as="geometry" />
        </mxCell>
        <mxCell id="shjcz4ytobr2jO7SuoTM-52" style="edgeStyle=orthogonalEdgeStyle;rounded=0;orthogonalLoop=1;jettySize=auto;html=1;exitX=0.5;exitY=1;exitDx=0;exitDy=0;entryX=0.5;entryY=0;entryDx=0;entryDy=0;" parent="1" source="shjcz4ytobr2jO7SuoTM-46" target="shjcz4ytobr2jO7SuoTM-47" edge="1">
          <mxGeometry relative="1" as="geometry" />
        </mxCell>
        <mxCell id="shjcz4ytobr2jO7SuoTM-46" value="INPUT DESKRIPSI GAMBAR" style="rounded=0;whiteSpace=wrap;html=1;" parent="1" vertex="1">
          <mxGeometry x="1082" y="202.77" width="168" height="30" as="geometry" />
        </mxCell>
        <mxCell id="shjcz4ytobr2jO7SuoTM-108" style="edgeStyle=orthogonalEdgeStyle;rounded=0;orthogonalLoop=1;jettySize=auto;html=1;exitX=0.5;exitY=1;exitDx=0;exitDy=0;" parent="1" source="shjcz4ytobr2jO7SuoTM-47" edge="1">
          <mxGeometry relative="1" as="geometry">
            <mxPoint x="1500" y="530" as="targetPoint" />
          </mxGeometry>
        </mxCell>
        <mxCell id="shjcz4ytobr2jO7SuoTM-47" value="GENERATE GAMBAR" style="rounded=0;whiteSpace=wrap;html=1;" parent="1" vertex="1">
          <mxGeometry x="1082" y="257.77" width="168" height="30" as="geometry" />
        </mxCell>
        <mxCell id="shjcz4ytobr2jO7SuoTM-54" style="edgeStyle=orthogonalEdgeStyle;rounded=0;orthogonalLoop=1;jettySize=auto;html=1;exitX=0.5;exitY=1;exitDx=0;exitDy=0;entryX=0.5;entryY=0;entryDx=0;entryDy=0;" parent="1" source="shjcz4ytobr2jO7SuoTM-55" target="shjcz4ytobr2jO7SuoTM-57" edge="1">
          <mxGeometry relative="1" as="geometry" />
        </mxCell>
        <mxCell id="shjcz4ytobr2jO7SuoTM-55" value="C" style="ellipse;whiteSpace=wrap;html=1;aspect=fixed;" parent="1" vertex="1">
          <mxGeometry x="1359" y="79.12" width="50" height="50" as="geometry" />
        </mxCell>
        <mxCell id="shjcz4ytobr2jO7SuoTM-56" style="edgeStyle=orthogonalEdgeStyle;rounded=0;orthogonalLoop=1;jettySize=auto;html=1;exitX=0.5;exitY=1;exitDx=0;exitDy=0;entryX=0.5;entryY=0;entryDx=0;entryDy=0;" parent="1" source="shjcz4ytobr2jO7SuoTM-57" target="shjcz4ytobr2jO7SuoTM-59" edge="1">
          <mxGeometry relative="1" as="geometry" />
        </mxCell>
        <mxCell id="shjcz4ytobr2jO7SuoTM-57" value="UPLOAD DAN ANALISIS DOKUMEN" style="rounded=0;whiteSpace=wrap;html=1;" parent="1" vertex="1">
          <mxGeometry x="1300" y="147.62" width="168" height="30" as="geometry" />
        </mxCell>
        <mxCell id="shjcz4ytobr2jO7SuoTM-58" style="edgeStyle=orthogonalEdgeStyle;rounded=0;orthogonalLoop=1;jettySize=auto;html=1;exitX=0.5;exitY=1;exitDx=0;exitDy=0;entryX=0.5;entryY=0;entryDx=0;entryDy=0;" parent="1" source="shjcz4ytobr2jO7SuoTM-59" target="shjcz4ytobr2jO7SuoTM-60" edge="1">
          <mxGeometry relative="1" as="geometry" />
        </mxCell>
        <mxCell id="shjcz4ytobr2jO7SuoTM-59" value="EKSTRAKSTI&amp;nbsp; INFORMASI" style="rounded=0;whiteSpace=wrap;html=1;" parent="1" vertex="1">
          <mxGeometry x="1301" y="206.39000000000001" width="168" height="30" as="geometry" />
        </mxCell>
        <mxCell id="shjcz4ytobr2jO7SuoTM-88" style="edgeStyle=orthogonalEdgeStyle;rounded=0;orthogonalLoop=1;jettySize=auto;html=1;exitX=0.5;exitY=1;exitDx=0;exitDy=0;" parent="1" source="shjcz4ytobr2jO7SuoTM-60" edge="1">
          <mxGeometry relative="1" as="geometry">
            <mxPoint x="1390" y="310" as="targetPoint" />
          </mxGeometry>
        </mxCell>
        <mxCell id="shjcz4ytobr2jO7SuoTM-60" value="RINGKASAN DOKUMEN" style="rounded=0;whiteSpace=wrap;html=1;" parent="1" vertex="1">
          <mxGeometry x="1301" y="261.39" width="168" height="30" as="geometry" />
        </mxCell>
        <mxCell id="shjcz4ytobr2jO7SuoTM-109" style="edgeStyle=orthogonalEdgeStyle;rounded=0;orthogonalLoop=1;jettySize=auto;html=1;exitX=0.5;exitY=1;exitDx=0;exitDy=0;entryX=0.5;entryY=0;entryDx=0;entryDy=0;" parent="1" source="shjcz4ytobr2jO7SuoTM-61" target="shjcz4ytobr2jO7SuoTM-106" edge="1">
          <mxGeometry relative="1" as="geometry">
            <Array as="points">
              <mxPoint x="1385" y="410" />
              <mxPoint x="1505" y="410" />
            </Array>
          </mxGeometry>
        </mxCell>
        <mxCell id="shjcz4ytobr2jO7SuoTM-61" value="KONVERSI FORMAT" style="rounded=0;whiteSpace=wrap;html=1;" parent="1" vertex="1">
          <mxGeometry x="1301" y="311.39" width="168" height="30" as="geometry" />
        </mxCell>
        <mxCell id="shjcz4ytobr2jO7SuoTM-62" style="edgeStyle=orthogonalEdgeStyle;rounded=0;orthogonalLoop=1;jettySize=auto;html=1;exitX=0.5;exitY=1;exitDx=0;exitDy=0;entryX=0.5;entryY=0;entryDx=0;entryDy=0;" parent="1" source="shjcz4ytobr2jO7SuoTM-63" target="shjcz4ytobr2jO7SuoTM-65" edge="1">
          <mxGeometry relative="1" as="geometry" />
        </mxCell>
        <mxCell id="shjcz4ytobr2jO7SuoTM-63" value="D" style="ellipse;whiteSpace=wrap;html=1;aspect=fixed;" parent="1" vertex="1">
          <mxGeometry x="1569" y="86.63000000000001" width="50" height="50" as="geometry" />
        </mxCell>
        <mxCell id="shjcz4ytobr2jO7SuoTM-64" style="edgeStyle=orthogonalEdgeStyle;rounded=0;orthogonalLoop=1;jettySize=auto;html=1;exitX=0.5;exitY=1;exitDx=0;exitDy=0;entryX=0.5;entryY=0;entryDx=0;entryDy=0;" parent="1" source="shjcz4ytobr2jO7SuoTM-65" target="shjcz4ytobr2jO7SuoTM-67" edge="1">
          <mxGeometry relative="1" as="geometry" />
        </mxCell>
        <mxCell id="shjcz4ytobr2jO7SuoTM-65" value="MENULIS KODE DALAM BERBAGAI BAHASA" style="rounded=0;whiteSpace=wrap;html=1;" parent="1" vertex="1">
          <mxGeometry x="1510" y="155.13" width="168" height="30" as="geometry" />
        </mxCell>
        <mxCell id="shjcz4ytobr2jO7SuoTM-66" style="edgeStyle=orthogonalEdgeStyle;rounded=0;orthogonalLoop=1;jettySize=auto;html=1;exitX=0.5;exitY=1;exitDx=0;exitDy=0;entryX=0.5;entryY=0;entryDx=0;entryDy=0;" parent="1" source="shjcz4ytobr2jO7SuoTM-67" target="shjcz4ytobr2jO7SuoTM-68" edge="1">
          <mxGeometry relative="1" as="geometry" />
        </mxCell>
        <mxCell id="shjcz4ytobr2jO7SuoTM-67" value="DEBUG KODE" style="rounded=0;whiteSpace=wrap;html=1;" parent="1" vertex="1">
          <mxGeometry x="1511" y="213.9" width="168" height="30" as="geometry" />
        </mxCell>
        <mxCell id="shjcz4ytobr2jO7SuoTM-87" style="edgeStyle=orthogonalEdgeStyle;rounded=0;orthogonalLoop=1;jettySize=auto;html=1;exitX=0.5;exitY=1;exitDx=0;exitDy=0;entryX=0.5;entryY=0;entryDx=0;entryDy=0;" parent="1" source="shjcz4ytobr2jO7SuoTM-68" target="shjcz4ytobr2jO7SuoTM-69" edge="1">
          <mxGeometry relative="1" as="geometry" />
        </mxCell>
        <mxCell id="shjcz4ytobr2jO7SuoTM-68" value="PENJELASAN KODE" style="rounded=0;whiteSpace=wrap;html=1;" parent="1" vertex="1">
          <mxGeometry x="1511" y="268.9" width="168" height="30" as="geometry" />
        </mxCell>
        <mxCell id="shjcz4ytobr2jO7SuoTM-110" style="edgeStyle=orthogonalEdgeStyle;rounded=0;orthogonalLoop=1;jettySize=auto;html=1;exitX=0.5;exitY=1;exitDx=0;exitDy=0;entryX=0.5;entryY=0;entryDx=0;entryDy=0;" parent="1" source="shjcz4ytobr2jO7SuoTM-69" target="shjcz4ytobr2jO7SuoTM-106" edge="1">
          <mxGeometry relative="1" as="geometry">
            <Array as="points">
              <mxPoint x="1595" y="410" />
              <mxPoint x="1505" y="410" />
            </Array>
          </mxGeometry>
        </mxCell>
        <mxCell id="shjcz4ytobr2jO7SuoTM-69" value="OPTIMASI KODE" style="rounded=0;whiteSpace=wrap;html=1;" parent="1" vertex="1">
          <mxGeometry x="1511" y="318.9" width="168" height="30" as="geometry" />
        </mxCell>
        <mxCell id="shjcz4ytobr2jO7SuoTM-70" style="edgeStyle=orthogonalEdgeStyle;rounded=0;orthogonalLoop=1;jettySize=auto;html=1;exitX=0.5;exitY=1;exitDx=0;exitDy=0;entryX=0.5;entryY=0;entryDx=0;entryDy=0;" parent="1" source="shjcz4ytobr2jO7SuoTM-71" target="shjcz4ytobr2jO7SuoTM-73" edge="1">
          <mxGeometry relative="1" as="geometry" />
        </mxCell>
        <mxCell id="shjcz4ytobr2jO7SuoTM-71" value="E" style="ellipse;whiteSpace=wrap;html=1;aspect=fixed;" parent="1" vertex="1">
          <mxGeometry x="1789" y="86.63000000000001" width="50" height="50" as="geometry" />
        </mxCell>
        <mxCell id="shjcz4ytobr2jO7SuoTM-72" style="edgeStyle=orthogonalEdgeStyle;rounded=0;orthogonalLoop=1;jettySize=auto;html=1;exitX=0.5;exitY=1;exitDx=0;exitDy=0;entryX=0.5;entryY=0;entryDx=0;entryDy=0;" parent="1" source="shjcz4ytobr2jO7SuoTM-73" target="shjcz4ytobr2jO7SuoTM-75" edge="1">
          <mxGeometry relative="1" as="geometry" />
        </mxCell>
        <mxCell id="shjcz4ytobr2jO7SuoTM-73" value="ANALISIS DATA" style="rounded=0;whiteSpace=wrap;html=1;" parent="1" vertex="1">
          <mxGeometry x="1730" y="155.13" width="168" height="30" as="geometry" />
        </mxCell>
        <mxCell id="shjcz4ytobr2jO7SuoTM-74" style="edgeStyle=orthogonalEdgeStyle;rounded=0;orthogonalLoop=1;jettySize=auto;html=1;exitX=0.5;exitY=1;exitDx=0;exitDy=0;entryX=0.5;entryY=0;entryDx=0;entryDy=0;" parent="1" source="shjcz4ytobr2jO7SuoTM-75" target="shjcz4ytobr2jO7SuoTM-76" edge="1">
          <mxGeometry relative="1" as="geometry" />
        </mxCell>
        <mxCell id="shjcz4ytobr2jO7SuoTM-75" value="VISUALISASI DATA" style="rounded=0;whiteSpace=wrap;html=1;" parent="1" vertex="1">
          <mxGeometry x="1731" y="213.9" width="168" height="30" as="geometry" />
        </mxCell>
        <mxCell id="shjcz4ytobr2jO7SuoTM-86" style="edgeStyle=orthogonalEdgeStyle;rounded=0;orthogonalLoop=1;jettySize=auto;html=1;exitX=0.5;exitY=1;exitDx=0;exitDy=0;entryX=0.5;entryY=0;entryDx=0;entryDy=0;" parent="1" source="shjcz4ytobr2jO7SuoTM-76" target="shjcz4ytobr2jO7SuoTM-77" edge="1">
          <mxGeometry relative="1" as="geometry" />
        </mxCell>
        <mxCell id="shjcz4ytobr2jO7SuoTM-76" value="INTREPETASI STATISTIK" style="rounded=0;whiteSpace=wrap;html=1;" parent="1" vertex="1">
          <mxGeometry x="1731" y="268.9" width="168" height="30" as="geometry" />
        </mxCell>
        <mxCell id="shjcz4ytobr2jO7SuoTM-111" style="edgeStyle=orthogonalEdgeStyle;rounded=0;orthogonalLoop=1;jettySize=auto;html=1;exitX=0.5;exitY=1;exitDx=0;exitDy=0;entryX=0.5;entryY=0;entryDx=0;entryDy=0;" parent="1" source="shjcz4ytobr2jO7SuoTM-77" target="shjcz4ytobr2jO7SuoTM-106" edge="1">
          <mxGeometry relative="1" as="geometry">
            <Array as="points">
              <mxPoint x="1815" y="410" />
              <mxPoint x="1505" y="410" />
            </Array>
          </mxGeometry>
        </mxCell>
        <mxCell id="shjcz4ytobr2jO7SuoTM-77" value="PEMBUATAN LAPORAN" style="rounded=0;whiteSpace=wrap;html=1;" parent="1" vertex="1">
          <mxGeometry x="1731" y="318.9" width="168" height="30" as="geometry" />
        </mxCell>
        <mxCell id="shjcz4ytobr2jO7SuoTM-78" style="edgeStyle=orthogonalEdgeStyle;rounded=0;orthogonalLoop=1;jettySize=auto;html=1;exitX=0.5;exitY=1;exitDx=0;exitDy=0;entryX=0.5;entryY=0;entryDx=0;entryDy=0;" parent="1" source="shjcz4ytobr2jO7SuoTM-79" target="shjcz4ytobr2jO7SuoTM-81" edge="1">
          <mxGeometry relative="1" as="geometry" />
        </mxCell>
        <mxCell id="shjcz4ytobr2jO7SuoTM-79" value="F" style="ellipse;whiteSpace=wrap;html=1;aspect=fixed;" parent="1" vertex="1">
          <mxGeometry x="1979" y="90.26" width="50" height="50" as="geometry" />
        </mxCell>
        <mxCell id="shjcz4ytobr2jO7SuoTM-80" style="edgeStyle=orthogonalEdgeStyle;rounded=0;orthogonalLoop=1;jettySize=auto;html=1;exitX=0.5;exitY=1;exitDx=0;exitDy=0;entryX=0.5;entryY=0;entryDx=0;entryDy=0;" parent="1" source="shjcz4ytobr2jO7SuoTM-81" target="shjcz4ytobr2jO7SuoTM-83" edge="1">
          <mxGeometry relative="1" as="geometry" />
        </mxCell>
        <mxCell id="shjcz4ytobr2jO7SuoTM-81" value="MENGGUNAKAN GPT KHUSUS" style="rounded=0;whiteSpace=wrap;html=1;" parent="1" vertex="1">
          <mxGeometry x="1920" y="158.76" width="168" height="30" as="geometry" />
        </mxCell>
        <mxCell id="shjcz4ytobr2jO7SuoTM-82" style="edgeStyle=orthogonalEdgeStyle;rounded=0;orthogonalLoop=1;jettySize=auto;html=1;exitX=0.5;exitY=1;exitDx=0;exitDy=0;entryX=0.5;entryY=0;entryDx=0;entryDy=0;" parent="1" source="shjcz4ytobr2jO7SuoTM-83" target="shjcz4ytobr2jO7SuoTM-84" edge="1">
          <mxGeometry relative="1" as="geometry" />
        </mxCell>
        <mxCell id="shjcz4ytobr2jO7SuoTM-83" value="MEMBUAT GPT CUSTOM" style="rounded=0;whiteSpace=wrap;html=1;" parent="1" vertex="1">
          <mxGeometry x="1921" y="217.53" width="168" height="30" as="geometry" />
        </mxCell>
        <mxCell id="shjcz4ytobr2jO7SuoTM-112" style="edgeStyle=orthogonalEdgeStyle;rounded=0;orthogonalLoop=1;jettySize=auto;html=1;exitX=0.5;exitY=1;exitDx=0;exitDy=0;" parent="1" source="shjcz4ytobr2jO7SuoTM-84" edge="1">
          <mxGeometry relative="1" as="geometry">
            <mxPoint x="1500" y="530" as="targetPoint" />
            <Array as="points">
              <mxPoint x="2005" y="410" />
              <mxPoint x="1500" y="410" />
            </Array>
          </mxGeometry>
        </mxCell>
        <mxCell id="shjcz4ytobr2jO7SuoTM-84" value="GPT UNTUK TUGAS SPESIFIK" style="rounded=0;whiteSpace=wrap;html=1;" parent="1" vertex="1">
          <mxGeometry x="1921" y="272.53" width="168" height="30" as="geometry" />
        </mxCell>
        <mxCell id="shjcz4ytobr2jO7SuoTM-91" value="" style="edgeStyle=orthogonalEdgeStyle;rounded=0;orthogonalLoop=1;jettySize=auto;html=1;" parent="1" source="shjcz4ytobr2jO7SuoTM-89" target="shjcz4ytobr2jO7SuoTM-90" edge="1">
          <mxGeometry relative="1" as="geometry" />
        </mxCell>
        <mxCell id="shjcz4ytobr2jO7SuoTM-89" value="TAMPILKAN HASIL KE USER" style="rounded=0;whiteSpace=wrap;html=1;" parent="1" vertex="1">
          <mxGeometry x="306" y="910" width="214" height="33" as="geometry" />
        </mxCell>
        <mxCell id="shjcz4ytobr2jO7SuoTM-96" style="edgeStyle=orthogonalEdgeStyle;rounded=0;orthogonalLoop=1;jettySize=auto;html=1;exitX=1;exitY=0.5;exitDx=0;exitDy=0;entryX=0;entryY=0.5;entryDx=0;entryDy=0;" parent="1" source="shjcz4ytobr2jO7SuoTM-90" target="shjcz4ytobr2jO7SuoTM-95" edge="1">
          <mxGeometry relative="1" as="geometry" />
        </mxCell>
        <mxCell id="shjcz4ytobr2jO7SuoTM-97" value="NO" style="edgeLabel;html=1;align=center;verticalAlign=middle;resizable=0;points=[];" parent="shjcz4ytobr2jO7SuoTM-96" vertex="1" connectable="0">
          <mxGeometry x="-0.047" y="3" relative="1" as="geometry">
            <mxPoint y="3" as="offset" />
          </mxGeometry>
        </mxCell>
        <mxCell id="shjcz4ytobr2jO7SuoTM-100" style="edgeStyle=orthogonalEdgeStyle;rounded=0;orthogonalLoop=1;jettySize=auto;html=1;exitX=0.5;exitY=1;exitDx=0;exitDy=0;entryX=0.5;entryY=0;entryDx=0;entryDy=0;" parent="1" source="shjcz4ytobr2jO7SuoTM-90" target="shjcz4ytobr2jO7SuoTM-99" edge="1">
          <mxGeometry relative="1" as="geometry" />
        </mxCell>
        <mxCell id="shjcz4ytobr2jO7SuoTM-104" value="YES" style="edgeLabel;html=1;align=center;verticalAlign=middle;resizable=0;points=[];" parent="shjcz4ytobr2jO7SuoTM-100" vertex="1" connectable="0">
          <mxGeometry x="-0.2861" relative="1" as="geometry">
            <mxPoint as="offset" />
          </mxGeometry>
        </mxCell>
        <mxCell id="shjcz4ytobr2jO7SuoTM-90" value="USER PUAS?" style="rhombus;whiteSpace=wrap;html=1;" parent="1" vertex="1">
          <mxGeometry x="348.5" y="990" width="129" height="120" as="geometry" />
        </mxCell>
        <mxCell id="shjcz4ytobr2jO7SuoTM-94" style="edgeStyle=orthogonalEdgeStyle;rounded=0;orthogonalLoop=1;jettySize=auto;html=1;exitX=0.5;exitY=1;exitDx=0;exitDy=0;entryX=0.5;entryY=0;entryDx=0;entryDy=0;" parent="1" source="shjcz4ytobr2jO7SuoTM-92" target="shjcz4ytobr2jO7SuoTM-89" edge="1">
          <mxGeometry relative="1" as="geometry" />
        </mxCell>
        <mxCell id="shjcz4ytobr2jO7SuoTM-92" value="G" style="ellipse;whiteSpace=wrap;html=1;aspect=fixed;" parent="1" vertex="1">
          <mxGeometry x="388" y="820" width="50" height="50" as="geometry" />
        </mxCell>
        <mxCell id="shjcz4ytobr2jO7SuoTM-98" style="edgeStyle=orthogonalEdgeStyle;rounded=0;orthogonalLoop=1;jettySize=auto;html=1;exitX=0.5;exitY=0;exitDx=0;exitDy=0;entryX=1;entryY=0.5;entryDx=0;entryDy=0;" parent="1" source="shjcz4ytobr2jO7SuoTM-95" target="shjcz4ytobr2jO7SuoTM-10" edge="1">
          <mxGeometry relative="1" as="geometry" />
        </mxCell>
        <mxCell id="shjcz4ytobr2jO7SuoTM-95" value="USER MEMBERIKAN FEEDBACK" style="rounded=0;whiteSpace=wrap;html=1;" parent="1" vertex="1">
          <mxGeometry x="600" y="1033.5" width="214" height="33" as="geometry" />
        </mxCell>
        <mxCell id="shjcz4ytobr2jO7SuoTM-102" value="" style="edgeStyle=orthogonalEdgeStyle;rounded=0;orthogonalLoop=1;jettySize=auto;html=1;" parent="1" source="shjcz4ytobr2jO7SuoTM-99" target="shjcz4ytobr2jO7SuoTM-101" edge="1">
          <mxGeometry relative="1" as="geometry" />
        </mxCell>
        <mxCell id="shjcz4ytobr2jO7SuoTM-103" value="NO" style="edgeLabel;html=1;align=center;verticalAlign=middle;resizable=0;points=[];" parent="shjcz4ytobr2jO7SuoTM-102" vertex="1" connectable="0">
          <mxGeometry x="-0.2077" y="1" relative="1" as="geometry">
            <mxPoint as="offset" />
          </mxGeometry>
        </mxCell>
        <mxCell id="shjcz4ytobr2jO7SuoTM-105" style="edgeStyle=orthogonalEdgeStyle;rounded=0;orthogonalLoop=1;jettySize=auto;html=1;exitX=0;exitY=0.5;exitDx=0;exitDy=0;entryX=0;entryY=0.5;entryDx=0;entryDy=0;" parent="1" source="shjcz4ytobr2jO7SuoTM-99" target="shjcz4ytobr2jO7SuoTM-10" edge="1">
          <mxGeometry relative="1" as="geometry">
            <Array as="points">
              <mxPoint x="170" y="1229" />
              <mxPoint x="170" y="654" />
            </Array>
          </mxGeometry>
        </mxCell>
        <mxCell id="shjcz4ytobr2jO7SuoTM-113" value="YES" style="edgeLabel;html=1;align=center;verticalAlign=middle;resizable=0;points=[];" parent="shjcz4ytobr2jO7SuoTM-105" vertex="1" connectable="0">
          <mxGeometry x="-0.7861" y="-1" relative="1" as="geometry">
            <mxPoint as="offset" />
          </mxGeometry>
        </mxCell>
        <mxCell id="shjcz4ytobr2jO7SuoTM-99" value="LANJUT MENGGUNAKAN FITUR?" style="rhombus;whiteSpace=wrap;html=1;" parent="1" vertex="1">
          <mxGeometry x="349" y="1169" width="129" height="120" as="geometry" />
        </mxCell>
        <mxCell id="shjcz4ytobr2jO7SuoTM-101" value="SELESAI" style="rounded=0;whiteSpace=wrap;html=1;" parent="1" vertex="1">
          <mxGeometry x="361" y="1350" width="104" height="33" as="geometry" />
        </mxCell>
        <mxCell id="shjcz4ytobr2jO7SuoTM-106" value="G" style="ellipse;whiteSpace=wrap;html=1;aspect=fixed;" parent="1" vertex="1">
          <mxGeometry x="1480" y="530" width="50" height="50" as="geometry" />
        </mxCell>
      </root>
    </mxGraphModel>
  </diagram>
</mxfile>
